<!-- Partman Design System Icon Library -->
<!-- Professional SVG iconography system replacing emoji icons -->
<!-- Consistent 24x24 viewBox with 1.5px stroke weight for optimal rendering -->

<svg xmlns="http://www.w3.org/2000/svg" style="display: none;">

  <!-- Navigation Icons -->
  <symbol id="icon-home" viewBox="0 0 24 24" fill="none" stroke="currentColor" stroke-width="1.5">
    <path d="M3 9.5L12 2l9 7.5v11a2 2 0 01-2 2H5a2 2 0 01-2-2z"/>
    <polyline points="9,22 9,12 15,12 15,22"/>
  </symbol>

  <symbol id="icon-dashboard" viewBox="0 0 24 24" fill="none" stroke="currentColor" stroke-width="1.5">
    <rect x="3" y="3" width="7" height="7"/>
    <rect x="14" y="3" width="7" height="7"/>
    <rect x="14" y="14" width="7" height="7"/>
    <rect x="3" y="14" width="7" height="7"/>
  </symbol>

  <symbol id="icon-users" viewBox="0 0 24 24" fill="none" stroke="currentColor" stroke-width="1.5">
    <path d="M17 21v-2a4 4 0 00-4-4H5a4 4 0 00-4 4v2"/>
    <circle cx="9" cy="7" r="4"/>
    <path d="M23 21v-2a4 4 0 00-3-3.87"/>
    <path d="M16 3.13a4 4 0 010 7.75"/>
  </symbol>

  <symbol id="icon-user" viewBox="0 0 24 24" fill="none" stroke="currentColor" stroke-width="1.5">
    <path d="M20 21v-2a4 4 0 00-4-4H8a4 4 0 00-4 4v2"/>
    <circle cx="12" cy="7" r="4"/>
  </symbol>

  <symbol id="icon-briefcase" viewBox="0 0 24 24" fill="none" stroke="currentColor" stroke-width="1.5">
    <rect x="2" y="7" width="20" height="14" rx="2" ry="2"/>
    <path d="M16 21V5a2 2 0 00-2-2h-4a2 2 0 00-2-2v16"/>
  </symbol>

  <symbol id="icon-settings" viewBox="0 0 24 24" fill="none" stroke="currentColor" stroke-width="1.5">
    <circle cx="12" cy="12" r="3"/>
    <path d="M19.4 15a1.65 1.65 0 00.33 1.82l.06.06a2 2 0 010 2.83 2 2 0 01-2.83 0l-.06-.06a1.65 1.65 0 00-1.82-.33 1.65 1.65 0 00-1 1.51V21a2 2 0 01-2 2 2 2 0 01-2-2v-.09A1.65 1.65 0 009 19.4a1.65 1.65 0 00-1.82.33l-.06.06a2 2 0 01-2.83 0 2 2 0 010-2.83l.06-.06a1.65 1.65 0 00.33-1.82 1.65 1.65 0 00-1.51-1H3a2 2 0 01-2-2 2 2 0 012-2h.09A1.65 1.65 0 004.6 9a1.65 1.65 0 00-.33-1.82l-.06-.06a2 2 0 010-2.83 2 2 0 012.83 0l.06.06a1.65 1.65 0 001.82.33H9a1.65 1.65 0 001-1.51V3a2 2 0 012-2 2 2 0 012 2v.09a1.65 1.65 0 001 1.51 1.65 1.65 0 001.82-.33l.06-.06a2 2 0 012.83 0 2 2 0 010 2.83l-.06.06a1.65 1.65 0 00-.33 1.82V9a1.65 1.65 0 001.51 1H21a2 2 0 012 2 2 2 0 01-2 2h-.09a1.65 1.65 0 00-1.51 1z"/>
  </symbol>

  <!-- Action Icons -->
  <symbol id="icon-plus" viewBox="0 0 24 24" fill="none" stroke="currentColor" stroke-width="1.5">
    <line x1="12" y1="5" x2="12" y2="19"/>
    <line x1="5" y1="12" x2="19" y2="12"/>
  </symbol>

  <symbol id="icon-edit" viewBox="0 0 24 24" fill="none" stroke="currentColor" stroke-width="1.5">
    <path d="M11 4H4a2 2 0 00-2 2v14a2 2 0 002 2h14a2 2 0 002-2v-7"/>
    <path d="M18.5 2.5a2.12 2.12 0 013 3L12 15l-4 1 1-4 9.5-9.5z"/>
  </symbol>

  <symbol id="icon-trash" viewBox="0 0 24 24" fill="none" stroke="currentColor" stroke-width="1.5">
    <polyline points="3,6 5,6 21,6"/>
    <path d="M19 6v14a2 2 0 01-2 2H7a2 2 0 01-2-2V6m3 0V4a2 2 0 012-2h4a2 2 0 012 2v2"/>
    <line x1="10" y1="11" x2="10" y2="17"/>
    <line x1="14" y1="11" x2="14" y2="17"/>
  </symbol>

  <symbol id="icon-save" viewBox="0 0 24 24" fill="none" stroke="currentColor" stroke-width="1.5">
    <path d="M19 21H5a2 2 0 01-2-2V5a2 2 0 012-2h11l5 5v11a2 2 0 01-2 2z"/>
    <polyline points="17,21 17,13 7,13 7,21"/>
    <polyline points="7,3 7,8 15,8"/>
  </symbol>

  <symbol id="icon-x" viewBox="0 0 24 24" fill="none" stroke="currentColor" stroke-width="1.5">
    <line x1="18" y1="6" x2="6" y2="18"/>
    <line x1="6" y1="6" x2="18" y2="18"/>
  </symbol>

  <symbol id="icon-check" viewBox="0 0 24 24" fill="none" stroke="currentColor" stroke-width="1.5">
    <polyline points="20,6 9,17 4,12"/>
  </symbol>

  <!-- Status Icons -->
  <symbol id="icon-alert-circle" viewBox="0 0 24 24" fill="none" stroke="currentColor" stroke-width="1.5">
    <circle cx="12" cy="12" r="10"/>
    <line x1="12" y1="8" x2="12" y2="12"/>
    <line x1="12" y1="16" x2="12.01" y2="16"/>
  </symbol>

  <symbol id="icon-check-circle" viewBox="0 0 24 24" fill="none" stroke="currentColor" stroke-width="1.5">
    <path d="M22 11.08V12a10 10 0 11-5.93-9.14"/>
    <polyline points="22,4 12,14.01 9,11.01"/>
  </symbol>

  <symbol id="icon-x-circle" viewBox="0 0 24 24" fill="none" stroke="currentColor" stroke-width="1.5">
    <circle cx="12" cy="12" r="10"/>
    <line x1="15" y1="9" x2="9" y2="15"/>
    <line x1="9" y1="9" x2="15" y2="15"/>
  </symbol>

  <symbol id="icon-info" viewBox="0 0 24 24" fill="none" stroke="currentColor" stroke-width="1.5">
    <circle cx="12" cy="12" r="10"/>
    <line x1="12" y1="16" x2="12" y2="12"/>
    <line x1="12" y1="8" x2="12.01" y2="8"/>
  </symbol>

  <!-- Business Icons -->
  <symbol id="icon-dollar-sign" viewBox="0 0 24 24" fill="none" stroke="currentColor" stroke-width="1.5">
    <line x1="12" y1="1" x2="12" y2="23"/>
    <path d="M17 5H9.5a3.5 3.5 0 000 7h5a3.5 3.5 0 010 7H6"/>
  </symbol>

  <symbol id="icon-trending-up" viewBox="0 0 24 24" fill="none" stroke="currentColor" stroke-width="1.5">
    <polyline points="23,6 13.5,15.5 8.5,10.5 1,18"/>
    <polyline points="17,6 23,6 23,12"/>
  </symbol>

  <symbol id="icon-bar-chart" viewBox="0 0 24 24" fill="none" stroke="currentColor" stroke-width="1.5">
    <line x1="12" y1="20" x2="12" y2="10"/>
    <line x1="18" y1="20" x2="18" y2="4"/>
    <line x1="6" y1="20" x2="6" y2="16"/>
  </symbol>

  <symbol id="icon-pie-chart" viewBox="0 0 24 24" fill="none" stroke="currentColor" stroke-width="1.5">
    <path d="M21.21 15.89A10 10 0 118 2.83"/>
    <path d="M22 12A10 10 0 0012 2v10z"/>
  </symbol>

  <!-- Communication Icons -->
  <symbol id="icon-mail" viewBox="0 0 24 24" fill="none" stroke="currentColor" stroke-width="1.5">
    <path d="M4 4h16c1.1 0 2 .9 2 2v12c0 1.1-.9 2-2 2H4c-1.1 0-2-.9-2-2V6c0-1.1.9-2 2-2z"/>
    <polyline points="22,6 12,13 2,6"/>
  </symbol>

  <symbol id="icon-phone" viewBox="0 0 24 24" fill="none" stroke="currentColor" stroke-width="1.5">
    <path d="M22 16.92v3a2 2 0 01-2.18 2 19.79 19.79 0 01-8.63-3.07 19.5 19.5 0 01-6-6 19.79 19.79 0 01-3.07-8.67A2 2 0 014.11 2h3a2 2 0 012 1.72 12.84 12.84 0 00.7 2.81 2 2 0 01-.45 2.11L8.09 9.91a16 16 0 006 6l1.27-1.27a2 2 0 012.11-.45 12.84 12.84 0 002.81.7A2 2 0 0122 16.92z"/>
  </symbol>

  <symbol id="icon-message-circle" viewBox="0 0 24 24" fill="none" stroke="currentColor" stroke-width="1.5">
    <path d="M21 11.5a8.38 8.38 0 01-.9 3.8 8.5 8.5 0 01-7.6 4.7 8.38 8.38 0 01-3.8-.9L3 21l1.9-5.7a8.38 8.38 0 01-.9-3.8 8.5 8.5 0 014.7-7.6 8.38 8.38 0 013.8-.9h.5a8.48 8.48 0 018 8v.5z"/>
  </symbol>

  <!-- File Icons -->
  <symbol id="icon-file" viewBox="0 0 24 24" fill="none" stroke="currentColor" stroke-width="1.5">
    <path d="M13 2H6a2 2 0 00-2 2v16a2 2 0 002 2h12a2 2 0 002-2V9z"/>
    <polyline points="13,2 13,9 20,9"/>
  </symbol>

  <symbol id="icon-folder" viewBox="0 0 24 24" fill="none" stroke="currentColor" stroke-width="1.5">
    <path d="M22 19a2 2 0 01-2 2H4a2 2 0 01-2-2V5a2 2 0 012-2h5l2 3h9a2 2 0 012 2z"/>
  </symbol>

  <symbol id="icon-download" viewBox="0 0 24 24" fill="none" stroke="currentColor" stroke-width="1.5">
    <path d="M21 15v4a2 2 0 01-2 2H5a2 2 0 01-2-2v-4"/>
    <polyline points="7,10 12,15 17,10"/>
    <line x1="12" y1="15" x2="12" y2="3"/>
  </symbol>

  <symbol id="icon-upload" viewBox="0 0 24 24" fill="none" stroke="currentColor" stroke-width="1.5">
    <path d="M21 15v4a2 2 0 01-2 2H5a2 2 0 01-2-2v-4"/>
    <polyline points="17,8 12,3 7,8"/>
    <line x1="12" y1="3" x2="12" y2="15"/>
  </symbol>

  <!-- Interface Icons -->
  <symbol id="icon-search" viewBox="0 0 24 24" fill="none" stroke="currentColor" stroke-width="1.5">
    <circle cx="11" cy="11" r="8"/>
    <path d="M21 21l-4.35-4.35"/>
  </symbol>

  <symbol id="icon-filter" viewBox="0 0 24 24" fill="none" stroke="currentColor" stroke-width="1.5">
    <polygon points="22,3 2,3 10,12.46 10,19 14,21 14,12.46"/>
  </symbol>

  <symbol id="icon-sort" viewBox="0 0 24 24" fill="none" stroke="currentColor" stroke-width="1.5">
    <path d="M3 6h18"/>
    <path d="M7 12h10"/>
    <path d="M10 18h4"/>
  </symbol>

  <symbol id="icon-menu" viewBox="0 0 24 24" fill="none" stroke="currentColor" stroke-width="1.5">
    <line x1="3" y1="6" x2="21" y2="6"/>
    <line x1="3" y1="12" x2="21" y2="12"/>
    <line x1="3" y1="18" x2="21" y2="18"/>
  </symbol>

  <symbol id="icon-more-horizontal" viewBox="0 0 24 24" fill="none" stroke="currentColor" stroke-width="1.5">
    <circle cx="12" cy="12" r="1"/>
    <circle cx="19" cy="12" r="1"/>
    <circle cx="5" cy="12" r="1"/>
  </symbol>

  <symbol id="icon-more-vertical" viewBox="0 0 24 24" fill="none" stroke="currentColor" stroke-width="1.5">
    <circle cx="12" cy="12" r="1"/>
    <circle cx="12" cy="5" r="1"/>
    <circle cx="12" cy="19" r="1"/>
  </symbol>

  <!-- Arrow Icons -->
  <symbol id="icon-chevron-left" viewBox="0 0 24 24" fill="none" stroke="currentColor" stroke-width="1.5">
    <polyline points="15,18 9,12 15,6"/>
  </symbol>

  <symbol id="icon-chevron-right" viewBox="0 0 24 24" fill="none" stroke="currentColor" stroke-width="1.5">
    <polyline points="9,18 15,12 9,6"/>
  </symbol>

  <symbol id="icon-chevron-up" viewBox="0 0 24 24" fill="none" stroke="currentColor" stroke-width="1.5">
    <polyline points="18,15 12,9 6,15"/>
  </symbol>

  <symbol id="icon-chevron-down" viewBox="0 0 24 24" fill="none" stroke="currentColor" stroke-width="1.5">
    <polyline points="6,9 12,15 18,9"/>
  </symbol>

  <symbol id="icon-arrow-left" viewBox="0 0 24 24" fill="none" stroke="currentColor" stroke-width="1.5">
    <line x1="19" y1="12" x2="5" y2="12"/>
    <polyline points="12,19 5,12 12,5"/>
  </symbol>

  <symbol id="icon-arrow-right" viewBox="0 0 24 24" fill="none" stroke="currentColor" stroke-width="1.5">
    <line x1="5" y1="12" x2="19" y2="12"/>
    <polyline points="12,5 19,12 12,19"/>
  </symbol>

  <!-- Time Icons -->
  <symbol id="icon-clock" viewBox="0 0 24 24" fill="none" stroke="currentColor" stroke-width="1.5">
    <circle cx="12" cy="12" r="10"/>
    <polyline points="12,6 12,12 16,14"/>
  </symbol>

  <symbol id="icon-calendar" viewBox="0 0 24 24" fill="none" stroke="currentColor" stroke-width="1.5">
    <rect x="3" y="4" width="18" height="18" rx="2" ry="2"/>
    <line x1="16" y1="2" x2="16" y2="6"/>
    <line x1="8" y1="2" x2="8" y2="6"/>
    <line x1="3" y1="10" x2="21" y2="10"/>
  </symbol>

  <!-- System Icons -->
  <symbol id="icon-refresh" viewBox="0 0 24 24" fill="none" stroke="currentColor" stroke-width="1.5">
    <polyline points="23,4 23,10 17,10"/>
    <polyline points="1,20 1,14 7,14"/>
    <path d="M20.49 9A9 9 0 005.64 5.64L1 10m22 4l-4.64 4.36A9 9 0 013.51 15"/>
  </symbol>

  <symbol id="icon-power" viewBox="0 0 24 24" fill="none" stroke="currentColor" stroke-width="1.5">
    <path d="M18.36 6.64a9 9 0 11-12.73 0"/>
    <line x1="12" y1="2" x2="12" y2="12"/>
  </symbol>

  <symbol id="icon-eye" viewBox="0 0 24 24" fill="none" stroke="currentColor" stroke-width="1.5">
    <path d="M1 12s4-8 11-8 11 8 11 8-4 8-11 8-11-8-11-8z"/>
    <circle cx="12" cy="12" r="3"/>
  </symbol>

  <symbol id="icon-eye-off" viewBox="0 0 24 24" fill="none" stroke="currentColor" stroke-width="1.5">
    <path d="M17.94 17.94A10.07 10.07 0 0112 20c-7 0-11-8-11-8a18.45 18.45 0 015.06-5.94M9.9 4.24A9.12 9.12 0 0112 4c7 0 11 8 11 8a18.5 18.5 0 01-2.16 3.19m-6.72-1.07a3 3 0 11-4.24-4.24"/>
    <line x1="1" y1="1" x2="23" y2="23"/>
  </symbol>

</svg>